<svg xmlns="http://www.w3.org/2000/svg" viewBox="0 0 32 32">
  <defs>
    <linearGradient id="grad" x1="0%" y1="0%" x2="100%" y2="100%">
      <stop offset="0%" style="stop-color:#8B5CF6"/>
      <stop offset="100%" style="stop-color:#06B6D4"/>
    </linearGradient>
  </defs>

  <!-- House shape -->
  <path d="M16 3L2 14h4v13h8v-8h4v8h8V14h4L16 3z" fill="url(#grad)"/>

  <!-- AI Sparkle -->
  <g fill="#FFD700">
    <!-- Main sparkle -->
    <path d="M26 4l1 2.5 2.5 1-2.5 1-1 2.5-1-2.5-2.5-1 2.5-1z"/>
    <!-- Small sparkle -->
    <path d="M6 6l.5 1.25 1.25.5-1.25.5-.5 1.25-.5-1.25L4 7.75l1.25-.5z"/>
  </g>

  <!-- Window/door detail -->
  <rect x="14" y="18" width="4" height="9" fill="#1E1B4B" rx="0.5"/>
  <rect x="7" y="16" width="4" height="4" fill="#1E1B4B" rx="0.5"/>
  <rect x="21" y="16" width="4" height="4" fill="#1E1B4B" rx="0.5"/>
</svg>
